<mxfile host="app.diagrams.net" modified="2022-05-26T11:15:07.824Z" agent="5.0 (Windows NT 10.0; Win64; x64) AppleWebKit/537.36 (KHTML, like Gecko) Chrome/98.0.4758.102 Safari/537.36" etag="lCgsLJDhGR8vMwzBmaZS" version="18.1.2" type="github">
  <diagram id="P_AS77iDH7CpLwKla1Zu" name="Page-1">
    <mxGraphModel dx="611" dy="321" grid="1" gridSize="10" guides="1" tooltips="1" connect="1" arrows="1" fold="1" page="1" pageScale="1" pageWidth="827" pageHeight="1169" math="0" shadow="0">
      <root>
        <mxCell id="0" />
        <mxCell id="1" parent="0" />
        <mxCell id="0OcT482NYevwqzsZRI_J-5" value="" style="shape=table;startSize=0;container=1;collapsible=0;childLayout=tableLayout;" vertex="1" parent="1">
          <mxGeometry x="70" y="90" width="480" height="160" as="geometry" />
        </mxCell>
        <mxCell id="0OcT482NYevwqzsZRI_J-6" value="" style="shape=tableRow;horizontal=0;startSize=0;swimlaneHead=0;swimlaneBody=0;top=0;left=0;bottom=0;right=0;collapsible=0;dropTarget=0;fillColor=none;points=[[0,0.5],[1,0.5]];portConstraint=eastwest;" vertex="1" parent="0OcT482NYevwqzsZRI_J-5">
          <mxGeometry width="480" height="46" as="geometry" />
        </mxCell>
        <mxCell id="0OcT482NYevwqzsZRI_J-7" value="模块设计" style="shape=partialRectangle;html=1;whiteSpace=wrap;connectable=0;overflow=hidden;fillColor=none;top=0;left=0;bottom=0;right=0;pointerEvents=1;" vertex="1" parent="0OcT482NYevwqzsZRI_J-6">
          <mxGeometry width="240" height="46" as="geometry">
            <mxRectangle width="240" height="46" as="alternateBounds" />
          </mxGeometry>
        </mxCell>
        <mxCell id="0OcT482NYevwqzsZRI_J-8" value="功能" style="shape=partialRectangle;html=1;whiteSpace=wrap;connectable=0;overflow=hidden;fillColor=none;top=0;left=0;bottom=0;right=0;pointerEvents=1;" vertex="1" parent="0OcT482NYevwqzsZRI_J-6">
          <mxGeometry x="240" width="240" height="46" as="geometry">
            <mxRectangle width="240" height="46" as="alternateBounds" />
          </mxGeometry>
        </mxCell>
        <mxCell id="0OcT482NYevwqzsZRI_J-9" value="" style="shape=tableRow;horizontal=0;startSize=0;swimlaneHead=0;swimlaneBody=0;top=0;left=0;bottom=0;right=0;collapsible=0;dropTarget=0;fillColor=none;points=[[0,0.5],[1,0.5]];portConstraint=eastwest;" vertex="1" parent="0OcT482NYevwqzsZRI_J-5">
          <mxGeometry y="46" width="480" height="114" as="geometry" />
        </mxCell>
        <mxCell id="0OcT482NYevwqzsZRI_J-10" value="&lt;span style=&quot;font-size:10.5pt;font-family:宋体;&lt;br/&gt;mso-ascii-font-family:&amp;quot;Times New Roman&amp;quot;;mso-hansi-font-family:&amp;quot;Times New Roman&amp;quot;;&lt;br/&gt;mso-bidi-font-family:&amp;quot;Times New Roman&amp;quot;;mso-font-kerning:1.0pt;mso-ansi-language:&lt;br/&gt;EN-US;mso-fareast-language:ZH-CN;mso-bidi-language:AR-SA&quot;&gt;界面模块设计&lt;/span&gt;" style="shape=partialRectangle;html=1;whiteSpace=wrap;connectable=0;overflow=hidden;fillColor=none;top=0;left=0;bottom=0;right=0;pointerEvents=1;" vertex="1" parent="0OcT482NYevwqzsZRI_J-9">
          <mxGeometry width="240" height="114" as="geometry">
            <mxRectangle width="240" height="114" as="alternateBounds" />
          </mxGeometry>
        </mxCell>
        <mxCell id="0OcT482NYevwqzsZRI_J-11" value="&lt;p class=&quot;a&quot;&gt;&lt;/p&gt;&lt;ul&gt;&lt;li&gt;&lt;span lang=&quot;EN-US&quot;&gt;&lt;font style=&quot;vertical-align: inherit;&quot;&gt;&lt;font style=&quot;vertical-align: inherit;&quot;&gt;View&lt;/font&gt;&lt;/font&gt;&lt;/span&gt;&lt;span style=&quot;mso-bidi-font-size:10.5pt;&lt;br/&gt;font-family:宋体;mso-ascii-font-family:&amp;quot;Times New Roman&amp;quot;;mso-hansi-font-family:&lt;br/&gt;&amp;quot;Times New Roman&amp;quot;;mso-bidi-font-family:&amp;quot;Times New Roman&amp;quot;&quot;&gt;&lt;font style=&quot;vertical-align: inherit;&quot;&gt;&lt;font style=&quot;vertical-align: inherit;&quot;&gt;和&lt;/font&gt;&lt;/font&gt;&lt;/span&gt;&lt;span lang=&quot;EN-US&quot;&gt;&lt;font style=&quot;vertical-align: inherit;&quot;&gt;&lt;font style=&quot;vertical-align: inherit;&quot;&gt;ViewModel&lt;/font&gt;&lt;/font&gt;&lt;/span&gt;&lt;span style=&quot;mso-bidi-font-size:10.5pt;font-family:宋体;mso-ascii-font-family:&amp;quot;Times New Roman&amp;quot;;&lt;br/&gt;mso-hansi-font-family:&amp;quot;Times New Roman&amp;quot;;mso-bidi-font-family:&amp;quot;Times New Roman&amp;quot;&quot;&gt;&lt;font style=&quot;vertical-align: inherit;&quot;&gt;&lt;font style=&quot;vertical-align: inherit;&quot;&gt;的组件；&lt;/font&gt;&lt;/font&gt;&lt;/span&gt;&lt;/li&gt;&lt;li&gt;&lt;span lang=&quot;EN-US&quot;&gt;&lt;font style=&quot;vertical-align: inherit;&quot;&gt;&lt;font style=&quot;vertical-align: inherit;&quot;&gt;视图&lt;/font&gt;&lt;/font&gt;&lt;/span&gt;&lt;span style=&quot;mso-bidi-font-size:10.5pt;&lt;br/&gt;font-family:宋体;mso-ascii-font-family:&amp;quot;Times New Roman&amp;quot;;mso-hansi-font-family:&lt;br/&gt;&amp;quot;Times New Roman&amp;quot;;mso-bidi-font-family:&amp;quot;Times New Roman&amp;quot;&quot;&gt;&lt;font style=&quot;vertical-align: inherit;&quot;&gt;&lt;font style=&quot;vertical-align: inherit;&quot;&gt;依赖&lt;/font&gt;&lt;/font&gt;&lt;/span&gt;&lt;span lang=&quot;EN-US&quot;&gt;&lt;font style=&quot;vertical-align: inherit;&quot;&gt;&lt;font style=&quot;vertical-align: inherit;&quot;&gt;ViewModel &lt;/font&gt;&lt;/font&gt;&lt;/span&gt;&lt;span style=&quot;mso-bidi-font-size:10.5pt;font-family:宋体;mso-ascii-font-family:&amp;quot;Times New Roman&amp;quot;;&lt;br/&gt;mso-hansi-font-family:&amp;quot;Times New Roman&amp;quot;;mso-bidi-font-family:&amp;quot;Times New Roman&amp;quot;&quot;&gt;&lt;font style=&quot;vertical-align: inherit;&quot;&gt;&lt;font style=&quot;vertical-align: inherit;&quot;&gt;；&lt;/font&gt;&lt;/font&gt;&lt;/span&gt;&lt;/li&gt;&lt;li&gt;&lt;span lang=&quot;EN-US&quot;&gt;&lt;font style=&quot;vertical-align: inherit;&quot;&gt;&lt;font style=&quot;vertical-align: inherit;&quot;&gt;ViewModelModel &lt;/font&gt;&lt;/font&gt;&lt;/span&gt;&lt;font style=&quot;vertical-align: inherit;&quot;&gt;&lt;span style=&quot;mso-bidi-font-size:10.5pt;font-family:宋体;mso-ascii-font-family:&amp;quot;Times New Roman&amp;quot;;&lt;br/&gt;mso-hansi-font-family:&amp;quot;Times New Roman&amp;quot;;mso-bidi-font-family:&amp;quot;Times New Roman&amp;quot;&quot;&gt;&lt;font style=&quot;vertical-align: inherit;&quot;&gt;，&lt;/font&gt;&lt;/span&gt;&lt;span style=&quot;mso-bidi-font-size:10.5pt;font-family:宋体;mso-ascii-font-family:&amp;quot;Times New Roman&amp;quot;;&lt;br/&gt;mso-hansi-font-family:&amp;quot;Times New Roman&amp;quot;;mso-bidi-font-family:&amp;quot;Times New Roman&amp;quot;&quot;&gt;&lt;font style=&quot;vertical-align: inherit;&quot;&gt;不强依赖&lt;/font&gt;&lt;/span&gt;&lt;span lang=&quot;EN-US&quot;&gt;&lt;font style=&quot;vertical-align: inherit;&quot;&gt;View&lt;/font&gt;&lt;/span&gt;&lt;/font&gt;&lt;span style=&quot;mso-bidi-font-size:10.5pt;font-family:宋体;mso-ascii-font-family:&amp;quot;Times New Roman&amp;quot;;&lt;br/&gt;mso-hansi-font-family:&amp;quot;Times New Roman&amp;quot;;mso-bidi-font-family:&amp;quot;Times New Roman&amp;quot;&quot;&gt;&lt;font style=&quot;vertical-align: inherit;&quot;&gt;&lt;font style=&quot;vertical-align: inherit;&quot;&gt;依赖&lt;/font&gt;&lt;/font&gt;&lt;/span&gt;&lt;font style=&quot;vertical-align: inherit;&quot;&gt;&lt;span lang=&quot;EN-US&quot;&gt;&lt;font style=&quot;vertical-align: inherit;&quot;&gt;；&lt;/font&gt;&lt;/span&gt;&lt;/font&gt;&lt;span lang=&quot;EN-US&quot;&gt;&lt;font style=&quot;vertical-align: inherit;&quot;&gt;&lt;/font&gt;&lt;/span&gt;&lt;span style=&quot;mso-bidi-font-size:10.5pt;font-family:宋体;mso-ascii-font-family:&amp;quot;Times New Roman&amp;quot;;&lt;br/&gt;mso-hansi-font-family:&amp;quot;Times New Roman&amp;quot;;mso-bidi-font-family:&amp;quot;Times New Roman&amp;quot;&quot;&gt;&lt;font style=&quot;vertical-align: inherit;&quot;&gt;&lt;/font&gt;&lt;/span&gt;&lt;span lang=&quot;EN-US&quot;&gt;&lt;font style=&quot;vertical-align: inherit;&quot;&gt;&lt;/font&gt;&lt;/span&gt;&lt;span style=&quot;mso-bidi-font-size:10.5pt;font-family:宋体;mso-ascii-font-family:&amp;quot;Times New Roman&amp;quot;;&lt;br/&gt;mso-hansi-font-family:&amp;quot;Times New Roman&amp;quot;;mso-bidi-font-family:&amp;quot;Times New Roman&amp;quot;&quot;&gt;&lt;font style=&quot;vertical-align: inherit;&quot;&gt;&lt;/font&gt;&lt;/span&gt;&lt;/li&gt;&lt;li&gt;&lt;span style=&quot;font-size:10.5pt;font-family:&amp;quot;Times New Roman&amp;quot;,serif;&lt;br/&gt;mso-fareast-font-family:宋体;mso-font-kerning:1.0pt;mso-ansi-language:EN-US;&lt;br/&gt;mso-fareast-language:ZH-CN;mso-bidi-language:AR-SA&quot; lang=&quot;EN-US&quot;&gt;&lt;font style=&quot;vertical-align: inherit;&quot;&gt;&lt;font style=&quot;vertical-align: inherit;&quot;&gt;查看&lt;/font&gt;&lt;/font&gt;&lt;/span&gt;&lt;span style=&quot;font-size:10.5pt;font-family:宋体;mso-ascii-font-family:&amp;quot;Times New Roman&amp;quot;;&lt;br/&gt;mso-hansi-font-family:&amp;quot;Times New Roman&amp;quot;;mso-bidi-font-family:&amp;quot;Times New Roman&amp;quot;;&lt;br/&gt;mso-font-kerning:1.0pt;mso-ansi-language:EN-US;mso-fareast-language:ZH-CN;&lt;br/&gt;mso-bidi-language:AR-SA&quot;&gt;&lt;font style=&quot;vertical-align: inherit;&quot;&gt;&lt;font style=&quot;vertical-align: inherit;&quot;&gt;代表界面中的一个正方形视图&lt;/font&gt;&lt;/font&gt;&lt;/span&gt;&lt;/li&gt;&lt;/ul&gt;&lt;p&gt;&lt;/p&gt;&lt;br/&gt;&lt;br/&gt;&lt;br/&gt;&lt;br/&gt;&lt;br/&gt;&lt;br/&gt;" style="shape=partialRectangle;html=1;whiteSpace=wrap;connectable=0;overflow=hidden;fillColor=none;top=0;left=0;bottom=0;right=0;pointerEvents=1;align=left;" vertex="1" parent="0OcT482NYevwqzsZRI_J-9">
          <mxGeometry x="240" width="240" height="114" as="geometry">
            <mxRectangle width="240" height="114" as="alternateBounds" />
          </mxGeometry>
        </mxCell>
      </root>
    </mxGraphModel>
  </diagram>
</mxfile>
